<!DOCTYPE svg PUBLIC "-//W3C//DTD SVG 1.1//EN" "http://www.w3.org/Graphics/SVG/1.1/DTD/svg11.dtd">
<!-- Uploaded to: SVG Repo, www.svgrepo.com, Transformed by: SVG Repo Mixer Tools -->
<svg height="800px" width="800px" version="1.1" id="_x32_" xmlns="http://www.w3.org/2000/svg" xmlns:xlink="http://www.w3.org/1999/xlink" viewBox="0 0 512 512" xml:space="preserve" fill="#ffffff">
<g id="SVGRepo_bgCarrier" stroke-width="0"/>
<g id="SVGRepo_tracerCarrier" stroke-linecap="round" stroke-linejoin="round"/>
<g id="SVGRepo_iconCarrier"> <style type="text/css"> .st0{#ffffffill:#ffffff;} </style> <g> <path class="st0" d="M469.345,416.047H44.659c-24.655,0-33.282,17.24-33.282,38.517v3.839c0,21.276,19.99,38.518,44.645,38.518 h401.844c24.654,0,44.644-17.241,44.644-38.518v-3.839C502.51,433.287,494.014,416.047,469.345,416.047z"/> <path class="st0" d="M461.989,261.904H61.19c-22.878,0-28.434,12.751-28.434,28.464v0.833c0,15.735,5.556,28.464,28.434,28.464 h400.798c22.9,0,26.637-12.73,26.637-28.464v-0.833C488.626,274.655,484.889,261.904,461.989,261.904z"/> <path class="st0" d="M41.676,174.611h430.527c16.378,0,25.832-7.706,25.832-22.344c0-4.994-0.519-2.72-1.477-7.656 C483.339,76.343,381.13,15.08,256.958,15.08c-124.194,0-226.403,61.264-239.63,129.532c-0.965,4.935-1.477,2.662-1.477,7.656 C15.851,166.905,25.298,174.611,41.676,174.611z M392.939,76.139c6.565,0,11.903,4.606,11.903,10.273 c0,5.666-5.338,10.272-11.903,10.272c-6.574,0-11.918-4.606-11.918-10.272C381.021,80.745,386.365,76.139,392.939,76.139z M333.393,42.63c6.58,0,11.903,4.606,11.903,10.273c0,5.681-5.323,10.287-11.903,10.287c-6.574,0-11.904-4.606-11.904-10.287 C321.49,47.236,326.82,42.63,333.393,42.63z M294.7,76.139c6.58,0,11.91,4.606,11.91,10.273c0,5.666-5.33,10.272-11.91,10.272 c-6.573,0-11.904-4.606-11.904-10.272C282.79,80.745,288.127,76.139,294.7,76.139z M250.048,29.929 c6.58,0,11.91,4.592,11.91,10.258c0,5.674-5.33,10.273-11.91,10.273c-6.573,0-11.911-4.6-11.911-10.273 C238.138,34.521,243.475,29.929,250.048,29.929z M214.331,73.565c6.566,0,11.904,4.607,11.904,10.281 c0,5.674-5.338,10.273-11.904,10.273c-6.58,0-11.91-4.599-11.91-10.273C202.421,78.171,207.751,73.565,214.331,73.565z M172.655,42.754c6.573,0,11.91,4.599,11.91,10.273s-5.338,10.272-11.91,10.272c-6.58,0-11.903-4.599-11.903-10.272 S166.075,42.754,172.655,42.754z M125.02,73.565c6.58,0,11.918,4.607,11.918,10.281c0,5.674-5.33,10.273-11.918,10.273 c-6.573,0-11.903-4.599-11.903-10.273C113.124,78.171,118.448,73.565,125.02,73.565z"/> <path class="st0" d="M14.886,248.545c4.504,0.008,8.818-0.497,12.796-1.462c3.992-0.973,7.611-2.391,10.792-4.058 c6.369-3.348,10.894-7.458,14.587-11.07c2.464-2.428,4.569-4.672,6.5-6.559c2.574-2.544,4.826-4.379,6.829-5.513 c1.155-0.65,2.223-1.134,3.452-1.47c1.389-0.402,3.012-0.672,5.315-0.672c1.982,0,3.459,0.204,4.716,0.512 c1.265,0.307,2.332,0.731,3.458,1.294c2.215,1.155,4.694,3.144,7.619,6.046c1.952,1.901,4.065,4.175,6.558,6.602 c3.32,3.24,7.297,6.836,12.693,9.93c3.071,1.762,6.596,3.326,10.529,4.446c4.504,1.294,9.461,1.981,14.696,1.974 c4.512,0.008,8.818-0.497,12.803-1.47c3.97-0.965,7.612-2.383,10.784-4.05c6.368-3.334,10.909-7.458,14.587-11.07 c2.464-2.428,4.57-4.672,6.507-6.559c2.588-2.536,4.819-4.379,6.829-5.513c1.148-0.65,2.23-1.134,3.444-1.477 c1.404-0.394,3.02-0.665,5.323-0.665c1.982,0,3.452,0.204,4.731,0.512c1.264,0.307,2.317,0.731,3.436,1.294 c2.23,1.155,4.702,3.144,7.626,6.046c1.959,1.901,4.08,4.175,6.551,6.602c3.334,3.24,7.312,6.836,12.7,9.93 c3.078,1.762,6.617,3.326,10.551,4.446c4.482,1.294,9.446,1.981,14.682,1.974c4.504,0.008,8.825-0.504,12.795-1.47 c3.992-0.965,7.612-2.391,10.792-4.057c6.376-3.327,10.902-7.451,14.594-11.07c2.464-2.42,4.563-4.664,6.508-6.551 c2.573-2.536,4.81-4.379,6.814-5.513c1.155-0.65,2.237-1.134,3.466-1.477c1.39-0.394,3.012-0.665,5.316-0.665 c1.981,0,3.466,0.204,4.716,0.512c1.258,0.307,2.326,0.731,3.452,1.294c2.23,1.148,4.694,3.144,7.619,6.039 c1.952,1.909,4.072,4.182,6.573,6.61c3.312,3.24,7.297,6.836,12.685,9.922c3.071,1.77,6.603,3.334,10.537,4.453 c4.496,1.294,9.468,1.981,14.703,1.974c4.504,0.008,8.818-0.504,12.796-1.47c3.984-0.972,7.611-2.391,10.784-4.057 c6.383-3.335,10.902-7.451,14.601-11.056c2.457-2.435,4.562-4.679,6.508-6.573c2.566-2.53,4.811-4.372,6.814-5.506 c1.163-0.658,2.238-1.134,3.466-1.477c1.39-0.394,3.02-0.665,5.324-0.672c1.974,0.008,3.451,0.212,4.723,0.519 c1.258,0.307,2.325,0.731,3.452,1.294c2.215,1.148,4.694,3.144,7.611,6.039c1.952,1.909,4.087,4.182,6.573,6.61 c3.319,3.24,7.311,6.836,12.685,9.922c3.071,1.77,6.603,3.334,10.536,4.453c4.49,1.286,9.461,1.981,14.711,1.974 c8.204,0,14.872-5.746,14.872-12.839c0-7.085-6.668-12.832-14.872-12.832c-1.996,0-3.466-0.212-4.738-0.519 c-1.266-0.307-2.34-0.724-3.452-1.294c-2.222-1.148-4.694-3.144-7.618-6.032c-1.945-1.924-4.081-4.19-6.566-6.625 c-3.305-3.224-7.297-6.821-12.693-9.922c-3.071-1.762-6.61-3.32-10.543-4.445c-4.475-1.287-9.446-1.982-14.681-1.982 c-4.512,0-8.818,0.512-12.81,1.484c-3.977,0.965-7.604,2.376-10.777,4.036c-6.376,3.349-10.91,7.458-14.595,11.077 c-2.456,2.42-4.577,4.679-6.507,6.566c-2.588,2.537-4.826,4.365-6.836,5.505c-1.148,0.666-2.23,1.126-3.451,1.477 c-1.396,0.395-3.02,0.672-5.316,0.672c-1.988,0-3.466-0.212-4.73-0.511c-1.258-0.314-2.332-0.732-3.436-1.302 c-2.23-1.148-4.716-3.144-7.633-6.032c-1.945-1.916-4.073-4.182-6.566-6.625c-3.312-3.224-7.304-6.821-12.685-9.922 c-3.071-1.762-6.61-3.32-10.543-4.445c-4.49-1.287-9.454-1.982-14.682-1.974c-4.511,0-8.817,0.512-12.81,1.477 c-3.977,0.965-7.604,2.376-10.777,4.036c-6.376,3.349-10.909,7.465-14.594,11.077c-2.456,2.42-4.562,4.679-6.507,6.566 c-2.581,2.537-4.818,4.365-6.829,5.505c-1.148,0.666-2.223,1.126-3.452,1.477c-1.396,0.395-3.012,0.672-5.315,0.672 c-1.982,0-3.466-0.212-4.731-0.511c-1.257-0.314-2.325-0.732-3.443-1.302c-2.223-1.148-4.694-3.144-7.612-6.032 c-1.959-1.916-4.08-4.182-6.58-6.625c-3.312-3.224-7.297-6.821-12.678-9.922c-3.07-1.762-6.61-3.32-10.543-4.445 c-4.489-1.287-9.462-1.982-14.696-1.974c-4.504,0-8.81,0.512-12.796,1.477c-3.984,0.965-7.604,2.376-10.777,4.036 c-6.39,3.349-10.902,7.465-14.601,11.077c-2.456,2.42-4.57,4.679-6.507,6.566c-2.567,2.537-4.811,4.365-6.815,5.505 c-1.163,0.666-2.237,1.126-3.458,1.477c-1.39,0.395-3.013,0.672-5.323,0.672c-1.989,0-3.465-0.212-4.715-0.511 c-1.266-0.314-2.333-0.732-3.459-1.302c-2.222-1.148-4.68-3.144-7.611-6.032c-1.952-1.916-4.08-4.182-6.558-6.625 c-3.327-3.224-7.312-6.821-12.708-9.922c-3.056-1.762-6.595-3.32-10.528-4.445c-4.49-1.287-9.462-1.982-14.69-1.974 c-4.511,0-8.825,0.512-12.802,1.477c-3.978,0.965-7.604,2.376-10.778,4.036c-6.375,3.349-10.901,7.465-14.594,11.077 c-2.464,2.42-4.563,4.679-6.507,6.566c-2.574,2.537-4.811,4.365-6.822,5.505c-1.148,0.666-2.23,1.126-3.443,1.477 c-1.396,0.395-3.013,0.672-5.324,0.672C6.668,222.875,0,228.622,0,235.707C0,242.799,6.668,248.545,14.886,248.545z"/> <path class="st0" d="M497.128,369.947c-1.996,0-3.466-0.212-4.738-0.52c-1.266-0.3-2.34-0.716-3.452-1.294 c-2.222-1.148-4.694-3.137-7.618-6.032c-1.945-1.923-4.081-4.182-6.566-6.617c-3.305-3.224-7.297-6.829-12.693-9.928 c-3.071-1.755-6.61-3.32-10.543-4.446c-4.475-1.287-9.446-1.981-14.681-1.981c-4.512,0-8.818,0.512-12.81,1.484 c-3.977,0.965-7.604,2.376-10.777,4.043c-6.376,3.349-10.91,7.458-14.595,11.07c-2.456,2.42-4.577,4.686-6.507,6.573 c-2.588,2.537-4.826,4.365-6.836,5.505c-1.148,0.658-2.23,1.119-3.451,1.47c-1.396,0.402-3.02,0.673-5.316,0.673 c-1.988,0-3.466-0.212-4.73-0.512c-1.258-0.307-2.332-0.724-3.436-1.302c-2.23-1.148-4.716-3.137-7.633-6.032 c-1.945-1.915-4.073-4.175-6.566-6.617c-3.312-3.224-7.304-6.829-12.685-9.928c-3.071-1.755-6.61-3.312-10.543-4.446 c-4.49-1.287-9.454-1.981-14.682-1.974c-4.511,0-8.817,0.512-12.81,1.477c-3.977,0.965-7.604,2.376-10.777,4.043 c-6.376,3.349-10.909,7.465-14.594,11.07c-2.456,2.42-4.562,4.686-6.507,6.573c-2.581,2.537-4.818,4.365-6.829,5.505 c-1.148,0.658-2.223,1.119-3.452,1.47c-1.396,0.402-3.012,0.673-5.315,0.673c-1.982,0-3.466-0.212-4.731-0.512 c-1.257-0.307-2.325-0.724-3.443-1.302c-2.223-1.148-4.694-3.137-7.612-6.032c-1.959-1.915-4.08-4.175-6.58-6.617 c-3.312-3.224-7.297-6.829-12.678-9.928c-3.07-1.755-6.61-3.312-10.543-4.446c-4.489-1.287-9.462-1.981-14.696-1.974 c-4.504,0-8.81,0.512-12.796,1.477c-3.984,0.965-7.604,2.376-10.777,4.043c-6.39,3.349-10.902,7.465-14.601,11.07 c-2.456,2.42-4.57,4.686-6.507,6.573c-2.567,2.537-4.811,4.365-6.815,5.505c-1.163,0.658-2.237,1.119-3.458,1.47 c-1.39,0.402-3.013,0.673-5.323,0.673c-1.989,0-3.465-0.212-4.715-0.512c-1.266-0.307-2.333-0.724-3.459-1.302 c-2.222-1.148-4.68-3.137-7.611-6.032c-1.952-1.915-4.08-4.175-6.558-6.617c-3.327-3.224-7.312-6.829-12.708-9.928 c-3.056-1.755-6.595-3.312-10.528-4.446c-4.49-1.287-9.462-1.981-14.69-1.974c-4.511,0-8.825,0.512-12.802,1.477 c-3.978,0.965-7.604,2.376-10.778,4.043c-6.375,3.349-10.901,7.465-14.594,11.07c-2.464,2.42-4.563,4.686-6.507,6.573 c-2.574,2.537-4.811,4.365-6.822,5.505c-1.148,0.658-2.23,1.119-3.443,1.47c-1.396,0.402-3.013,0.673-5.324,0.673 C6.668,369.947,0,375.695,0,382.786c0,7.085,6.668,12.832,14.886,12.84c4.504,0.007,8.818-0.505,12.796-1.47 c3.992-0.972,7.611-2.391,10.792-4.058c6.369-3.349,10.894-7.45,14.587-11.07c2.464-2.42,4.569-4.665,6.5-6.558 c2.574-2.545,4.826-4.372,6.829-5.506c1.155-0.658,2.223-1.133,3.452-1.476c1.389-0.402,3.012-0.666,5.315-0.673 c1.982,0.008,3.459,0.212,4.716,0.512c1.265,0.314,2.332,0.738,3.458,1.294c2.215,1.155,4.694,3.151,7.619,6.047 c1.952,1.908,4.065,4.175,6.558,6.602c3.32,3.246,7.297,6.844,12.693,9.93c3.071,1.769,6.596,3.334,10.529,4.452 c4.504,1.294,9.461,1.981,14.696,1.974c4.512,0.007,8.818-0.505,12.803-1.47c3.97-0.972,7.612-2.391,10.784-4.058 c6.368-3.334,10.909-7.45,14.587-11.07c2.464-2.42,4.57-4.665,6.507-6.558c2.588-2.53,4.819-4.38,6.829-5.506 c1.148-0.658,2.23-1.133,3.444-1.484c1.404-0.394,3.02-0.658,5.323-0.666c1.982,0.008,3.452,0.212,4.731,0.512 c1.264,0.307,2.317,0.738,3.436,1.294c2.23,1.155,4.702,3.151,7.626,6.047c1.959,1.908,4.08,4.175,6.551,6.602 c3.334,3.246,7.312,6.836,12.7,9.93c3.078,1.762,6.617,3.326,10.551,4.452c4.482,1.287,9.446,1.981,14.682,1.974 c4.504,0.007,8.825-0.505,12.795-1.47c3.992-0.98,7.612-2.391,10.792-4.058c6.376-3.334,10.902-7.45,14.594-11.07 c2.464-2.42,4.563-4.672,6.508-6.558c2.573-2.53,4.81-4.38,6.814-5.513c1.155-0.651,2.237-1.126,3.466-1.477 c1.39-0.394,3.012-0.658,5.316-0.666c1.981,0.008,3.466,0.205,4.716,0.512c1.258,0.307,2.326,0.731,3.452,1.294 c2.23,1.155,4.694,3.151,7.619,6.047c1.952,1.908,4.072,4.175,6.573,6.602c3.312,3.246,7.297,6.836,12.685,9.93 c3.071,1.762,6.603,3.326,10.537,4.452c4.496,1.287,9.468,1.981,14.703,1.974c4.504,0.007,8.818-0.505,12.796-1.47 c3.984-0.98,7.611-2.398,10.784-4.058c6.383-3.334,10.902-7.458,14.601-11.063c2.457-2.435,4.562-4.679,6.508-6.565 c2.566-2.538,4.811-4.38,6.814-5.513c1.163-0.651,2.238-1.126,3.466-1.477c1.39-0.394,3.02-0.658,5.324-0.666 c1.974,0.008,3.451,0.205,4.723,0.512c1.258,0.307,2.325,0.731,3.452,1.294c2.215,1.155,4.694,3.151,7.611,6.047 c1.952,1.908,4.087,4.175,6.573,6.602c3.319,3.246,7.311,6.836,12.685,9.93c3.071,1.762,6.603,3.326,10.536,4.452 c4.49,1.287,9.461,1.981,14.711,1.967c8.204,0,14.872-5.747,14.872-12.832C512,375.695,505.332,369.947,497.128,369.947z"/> </g> </g>
</svg>