<?xml version="1.0" encoding="UTF-8"?>
<svg id="Layer_1" data-name="Layer 1" xmlns="http://www.w3.org/2000/svg" viewBox="0 0 164.28 158.36">
  <path class="cls-1" d="M155.72,123.58c-2.31,0-4.11,1.8-4.11,4.11s1.8,4.11,4.11,4.11,4.11-1.8,4.11-4.11-1.8-4.11-4.11-4.11Zm0,7.6c-1.96,0-3.49-1.53-3.49-3.49s1.53-3.49,3.49-3.49,3.49,1.53,3.49,3.49-1.53,3.49-3.49,3.49Z"/>
  <path class="cls-1" d="M156.62,128.1c.58-.18,.93-.63,.93-1.22,0-.78-.53-1.25-1.42-1.25h-2v4.11h.71v-1.57h.9l1.1,1.57h.88l-1.16-1.63,.06-.02Zm-1.78-.49v-1.34h1.17c.51,0,.8,.23,.8,.64,0,.44-.3,.7-.8,.7h-1.17Z"/>
  <path class="cls-1" d="M137.3,7.18H14.56c-5.87,0-10.63,4.76-10.63,10.63v122.74c0,5.87,4.76,10.63,10.63,10.63h122.74c5.87,0,10.63-4.76,10.63-10.63V17.81c0-5.87-4.76-10.63-10.63-10.63ZM46.85,129.86H25.2V61.08h21.65v68.77Zm-10.82-78.3c-6.89,0-12.48-5.25-12.48-12.43s5.59-12.43,12.48-12.43,12.48,5.25,12.48,12.43-5.59,12.43-12.48,12.43Zm90.64,78.36h-21.65v-37.56c0-11.08-4.71-14.5-10.79-14.5-6.42,0-12.72,4.83-12.72,14.78v37.29h-21.65V61.13h20.82v9.53h.28c2.09-4.23,9.41-11.46,20.58-11.46,12.08,0,25.13,7.17,25.13,28.17v42.54Z"/>
</svg>