<?xml version="1.0" encoding="UTF-8"?>
<svg id="Layer_1" data-name="Layer 1" xmlns="http://www.w3.org/2000/svg" viewBox="0 0 164.28 158.36">
  <path d="M50.1,2.35c-8.23,.39-13.85,1.71-18.77,3.63-5.09,1.98-9.4,4.64-13.69,8.95-4.29,4.31-6.93,8.63-8.9,13.72-1.9,4.93-3.2,10.55-3.56,18.79-.36,8.25-.44,10.88-.4,31.89,.04,21.01,.13,23.64,.53,31.9,.39,8.23,1.71,13.85,3.63,18.76,1.99,5.09,4.64,9.39,8.95,13.69,4.31,4.29,8.63,6.93,13.72,8.9,4.92,1.9,10.55,3.2,18.78,3.56,8.25,.36,10.89,.44,31.89,.4,21.01-.04,23.65-.13,31.9-.52,8.23-.39,13.85-1.71,18.77-3.63,5.09-1.99,9.4-4.64,13.69-8.95,4.29-4.31,6.93-8.63,8.89-13.72,1.9-4.92,3.2-10.55,3.56-18.78,.36-8.26,.45-10.89,.41-31.9-.04-21.01-.14-23.64-.53-31.89-.39-8.24-1.71-13.85-3.63-18.77-1.99-5.09-4.64-9.39-8.95-13.69-4.31-4.29-8.63-6.93-13.72-8.89-4.92-1.91-10.55-3.2-18.78-3.56-8.25-.37-10.89-.45-31.9-.41-21,.04-23.64,.13-31.89,.53m.9,139.85c-7.54-.33-11.64-1.58-14.37-2.63-3.61-1.4-6.19-3.08-8.91-5.77-2.71-2.7-4.39-5.28-5.8-8.88-1.06-2.73-2.34-6.82-2.69-14.36-.38-8.15-.47-10.6-.51-31.26-.04-20.65,.04-23.1,.39-31.26,.32-7.54,1.58-11.64,2.63-14.37,1.4-3.62,3.07-6.19,5.77-8.91,2.7-2.71,5.28-4.39,8.89-5.8,2.73-1.07,6.82-2.33,14.36-2.69,8.16-.39,10.6-.47,31.25-.51,20.66-.04,23.1,.03,31.26,.39,7.54,.33,11.64,1.58,14.36,2.63,3.62,1.4,6.2,3.07,8.91,5.77,2.71,2.7,4.39,5.27,5.81,8.89,1.07,2.72,2.33,6.82,2.69,14.35,.39,8.16,.48,10.61,.51,31.26,.04,20.66-.04,23.1-.39,31.26-.33,7.54-1.58,11.64-2.63,14.37-1.4,3.61-3.07,6.19-5.77,8.91-2.7,2.7-5.27,4.39-8.89,5.8-2.72,1.06-6.82,2.33-14.35,2.69-8.16,.38-10.6,.47-31.26,.51-20.65,.04-23.1-.04-31.26-.39M114.07,37.83c0,5.12,4.18,9.27,9.3,9.26,5.13-.01,9.27-4.17,9.27-9.3-.01-5.12-4.18-9.27-9.3-9.26-5.13,.01-9.27,4.18-9.26,9.3M42.42,79.26c.04,21.94,17.86,39.69,39.8,39.64,21.94-.04,39.69-17.86,39.65-39.8-.04-21.93-17.86-39.69-39.8-39.65-21.93,.04-39.69,17.86-39.64,39.8m13.93-.03c-.03-14.24,11.5-25.81,25.74-25.83,14.24-.03,25.81,11.49,25.84,25.73,.03,14.24-11.5,25.81-25.74,25.84-14.24,.03-25.81-11.5-25.83-25.74"/>
</svg>